# xmcd
#
# Track frame offsets:
#	150
#	19487
#	40952
#	54720
#	67204
#	80806
#	97309
#	115294
#	136978
#	160267
#	176518
#	199912
#
# Disc length: 2887 seconds
#
# Revision: 1
# Processed by: cddbd v1.5.1PL0 Copyright (c) Steve Scherf et al.
# Submitted via: EasyCDDAExtractor 6.2.0.3
#
DISCID=b90b450c
DTITLE=Steve Arvey and Pete Cornelius - Freerange
DYEAR=2005
DGENRE=Blues
TTITLE0=Faith
TTITLE1=Something To Lose
TTITLE2=Cocaine Girl
TTITLE3=Proverbs
TTITLE4=When I Get Drunk
TTITLE5=The Pain Is Gone
TTITLE6=The Picture
TTITLE7=Cabo Sunset
TTITLE8=Two Roads
TTITLE9=Big Road
TTITLE10=Bush Chook
TTITLE11=Faith (Radio Mix)
EXTD=
EXTT0=
EXTT1=
EXTT2=
EXTT3=
EXTT4=
EXTT5=
EXTT6=
EXTT7=
EXTT8=
EXTT9=
EXTT10=
EXTT11=
PLAYORDER=
